<?xml version="1.0" standalone="no"?>
<!DOCTYPE svg PUBLIC "-//W3C//DTD SVG 20010904//EN"
 "http://www.w3.org/TR/2001/REC-SVG-20010904/DTD/svg10.dtd">
<svg version="1.0" xmlns="http://www.w3.org/2000/svg"
 width="700.000000pt" height="700.000000pt" viewBox="0 0 700.000000 700.000000"
 preserveAspectRatio="xMidYMid meet">
<metadata>
Created by potrace 1.11, written by Peter Selinger 2001-2013
</metadata>
<g transform="translate(0.000000,700.000000) scale(0.100000,-0.100000)"
fill="#000000" stroke="none">
<path d="M10 3500 l0 -3490 3490 0 3490 0 0 3490 0 3490 -3490 0 -3490 0 0
-3490z m6700 0 l0 -3210 -3210 0 -3210 0 0 3210 0 3210 3210 0 3210 0 0 -3210z"/>
<path d="M908 5461 c-5 -22 -3 -3827 3 -3831 4 -3 173 -5 376 -4 l368 0 5
1335 c3 734 8 1325 12 1314 4 -11 9 -31 12 -45 2 -14 7 -43 11 -65 4 -22 13
-65 20 -95 8 -30 16 -66 19 -80 2 -14 10 -47 16 -75 6 -27 14 -60 16 -71 12
-64 127 -452 184 -624 10 -30 64 -197 120 -370 56 -173 151 -468 212 -655 60
-187 126 -389 145 -450 20 -60 39 -112 43 -115 10 -6 738 -5 743 1 2 2 31 92
66 199 34 107 65 202 68 210 3 8 7 20 9 25 1 6 16 51 32 100 17 50 98 299 182
555 83 256 166 510 185 565 18 55 40 125 48 155 9 30 41 145 71 255 31 110 72
276 91 370 19 93 36 174 37 180 2 5 5 -582 8 -1305 l5 -1314 403 -1 c221 0
403 2 404 5 0 3 2 867 3 1921 l1 1916 -569 -1 -570 -1 -9 -24 c-5 -14 -17 -56
-28 -95 -10 -39 -63 -228 -118 -421 -55 -192 -170 -600 -256 -905 -86 -305
-163 -575 -170 -600 -8 -25 -60 -208 -117 -407 -56 -200 -105 -363 -109 -363
-4 0 -14 24 -23 53 -8 28 -47 158 -87 287 -39 129 -84 278 -100 330 -31 104
-141 468 -197 650 -71 232 -205 676 -218 720 -7 25 -29 99 -50 165 -34 111
-170 560 -181 596 -4 13 -66 15 -559 15 -305 1 -556 -2 -557 -5z"/>
<path d="M5223 4392 c-13 -2 -23 -10 -23 -18 -1 -8 -1 -160 -1 -339 0 -179 0
-352 1 -385 l0 -60 448 0 448 0 0 400 c0 220 -2 400 -5 400 -30 3 -852 4 -868
2z"/>
<path d="M5200 2358 c-2 -419 -1 -719 3 -725 4 -6 821 -10 883 -4 7 1 11 122
10 401 l0 400 -448 0 -448 0 0 -72z"/>
</g>
</svg>
